<?xml version="1.0" encoding="UTF-8"?>
<svg width="65px" height="65px" viewBox="0 0 65 65" version="1.1" xmlns="http://www.w3.org/2000/svg" xmlns:xlink="http://www.w3.org/1999/xlink">
    <title>grafana</title>
    <defs>
        <linearGradient x1="49.9947839%" y1="122.450358%" x2="49.9947839%" y2="31.1390083%" id="linearGradient-1">
            <stop stop-color="#FFF100" offset="0%"></stop>
            <stop stop-color="#F05A28" offset="100%"></stop>
        </linearGradient>
    </defs>
    <g id="grafana" stroke="none" stroke-width="1" fill="none" fill-rule="evenodd">
        <path d="M16,0 L49,0 C57.836556,0 65,7.163444 65,16 L65,49 C65,57.836556 57.836556,65 49,65 L16,65 C7.163444,65 0,57.836556 0,49 L0,16 C0,7.163444 7.163444,0 16,0 Z" id="Background" fill="#000000" fill-rule="nonzero"></path>
        <g id="grafana-seeklogo.com" transform="translate(13.000000, 11.000000)" fill="url(#linearGradient-1)" fill-rule="nonzero">
            <path d="M38.9375543,18.5355372 C38.8675018,17.829752 38.7507475,17.0198346 38.517239,16.1173554 C38.2837303,15.2264462 37.9334675,14.2429752 37.4197486,13.2247934 C36.9060298,12.2066116 36.2405303,11.153719 35.3765486,10.1239669 C35.0379612,9.71900826 34.6643475,9.32561983 34.2673829,8.94380165 C34.8628297,6.59504132 33.5435064,4.55867768 33.5435064,4.55867768 C31.2667977,4.41983471 29.8190446,5.26446281 29.2819748,5.64628099 C29.1885715,5.61157025 29.1068435,5.56528926 29.01344,5.53057851 C28.6281509,5.38016529 28.2311862,5.22975206 27.8108709,5.10247933 C27.4022309,4.97520661 26.9819154,4.85950413 26.5499246,4.7553719 C26.1179338,4.65123967 25.685943,4.57024793 25.2422767,4.50082645 C25.1605487,4.4892562 25.090496,4.47768594 25.008768,4.4661157 C24.0163566,1.31900826 21.1675521,0 21.1675521,0 C17.9801599,2.0016529 17.3847131,4.80165288 17.3847131,4.80165288 C17.3847131,4.80165288 17.3730378,4.85950413 17.3496869,4.96363636 C17.1745554,5.00991735 16.9994241,5.06776859 16.8242926,5.11404958 C16.5791086,5.18347107 16.3339246,5.27603306 16.100416,5.36859504 C15.855232,5.46115703 15.6217235,5.553719 15.3765394,5.65785123 C14.8978469,5.8661157 14.4191543,6.09752065 13.9521372,6.35206612 C13.4967955,6.60661157 13.0531292,6.88429752 12.6211383,7.17355371 C12.5627612,7.15041322 12.504384,7.12727272 12.504384,7.12727272 C8.09107201,5.46115703 4.17980343,7.46280991 4.17980343,7.46280991 C3.81786515,12.1140496 5.94279316,15.0413223 6.36310857,15.5735538 C6.25802972,15.8628099 6.1646263,16.1520661 6.07122287,16.4413223 C5.74431087,17.4942149 5.49912686,18.570248 5.34734629,19.692562 C5.32399544,19.8545455 5.30064458,20.016529 5.28896916,20.1785123 C1.20256914,22.1801652 0,26.2644628 0,26.2644628 C3.39754972,30.1404958 7.36719545,30.383471 7.36719545,30.383471 C7.36719545,30.383471 7.37887087,30.3719009 7.37887087,30.3719009 C7.88091429,31.2628099 8.46468573,32.107438 9.11850973,32.9057851 C9.39872001,33.2413223 9.6789303,33.553719 9.98249145,33.8661157 C8.74489601,37.383471 10.1576229,40.2991735 10.1576229,40.2991735 C13.9404617,40.4380165 16.427328,38.6561983 16.9527223,38.2512397 C17.3263361,38.3785123 17.7116251,38.4942149 18.0969144,38.5867768 C19.2644572,38.8876033 20.4553509,39.061157 21.6462447,39.107438 C21.9381303,39.1190083 22.2416915,39.1305786 22.5335772,39.1190083 L22.6736823,39.1190083 L22.7670858,39.1190083 L22.9538926,39.1190083 L23.1406995,39.107438 L23.1406995,39.1190083 C24.92704,41.6413223 28.0560549,42 28.0560549,42 C30.2860618,39.6743801 30.4144914,37.3603306 30.4144914,36.8628099 C30.4144914,36.8628099 30.4144914,36.8512397 30.4144914,36.8280991 C30.4144914,36.7818181 30.4144914,36.7586777 30.4144914,36.7586777 C30.4144914,36.723967 30.4144914,36.6892562 30.4144914,36.6545455 C30.8815086,36.3305786 31.3251749,35.983471 31.7454903,35.6016529 C32.6328228,34.8033058 33.4150766,33.8892562 34.0689006,32.9057851 C34.1272777,32.8132232 34.1856549,32.7206612 34.2440321,32.6280991 C36.7659246,32.7669422 38.5522652,31.0776859 38.5522652,31.0776859 C38.1319497,28.4743801 36.6374949,27.2016529 36.3222583,26.9586777 C36.3222583,26.9586777 36.3105829,26.9471074 36.2872321,26.9355372 C36.2638811,26.923967 36.2638811,26.9123967 36.2638811,26.9123967 C36.2638811,26.9123967 36.2638811,26.9123967 36.2638811,26.9123967 C36.2522058,26.9008264 36.2288549,26.8892562 36.2055041,26.8776859 C36.2171795,26.7157025 36.2288549,26.5652893 36.2405303,26.4033058 C36.2638811,26.1256199 36.2638811,25.8363636 36.2638811,25.5586777 L36.2638811,25.3504132 L36.2638811,25.246281 L36.2638811,25.1884297 C36.2638811,25.1190083 36.2638811,25.1421487 36.2638811,25.1190083 L36.2522058,24.9454545 L36.2405303,24.7140496 C36.2405303,24.6330578 36.2288549,24.5636364 36.2171795,24.4942149 C36.2055041,24.4247933 36.2055041,24.3438016 36.1938286,24.2743801 L36.1704778,24.0545455 L36.1354515,23.8347107 C36.0887498,23.5454545 36.0420481,23.2677685 35.9719955,22.9785123 C35.7034606,21.8561984 35.2597943,20.7917355 34.6876984,19.8314049 C34.1039269,18.8710743 33.3800503,18.0264462 32.5510948,17.3090909 C31.7338149,16.5917355 30.8114561,16.0132232 29.8540709,15.5851239 C28.8850103,15.1570248 27.8809234,14.8793388 26.8768366,14.7520661 C26.3747931,14.6826446 25.8727498,14.6595041 25.3707063,14.6710744 L25.1838995,14.6710744 L25.1371977,14.6710744 C25.1255223,14.6710744 25.0671452,14.6710744 25.0788207,14.6710744 L24.9970927,14.6710744 L24.8102857,14.6826446 C24.7402332,14.6826446 24.6701806,14.6942149 24.6118034,14.6942149 C24.3549441,14.7173554 24.0980846,14.7520661 23.8529006,14.7983471 C22.8488138,14.9834711 21.903104,15.3421487 21.0741486,15.8396694 C20.2451931,16.3371901 19.5213166,16.9504132 18.9375452,17.6446281 C18.3537737,18.3388429 17.8984321,19.1140496 17.5831954,19.9123967 C17.2679589,20.7107438 17.0928274,21.5438016 17.0461258,22.3421487 C17.0344503,22.5388429 17.0344503,22.7471074 17.0344503,22.9438016 C17.0344503,22.9900826 17.0344503,23.0479339 17.0344503,23.0942149 L17.0461258,23.2561984 C17.0578011,23.3487603 17.0578011,23.4528926 17.0694766,23.5454545 C17.1045029,23.9504132 17.1862309,24.3438016 17.2913098,24.7140496 C17.5131429,25.4661157 17.8634057,26.1487603 18.2953966,26.7272728 C18.7273875,27.3057851 19.2527817,27.7801652 19.8015268,28.1619835 C20.3502721,28.5322315 20.9457189,28.7983471 21.5294904,28.9719009 C22.1132617,29.1454545 22.6970332,29.2148761 23.2457783,29.2148761 C23.3158308,29.2148761 23.3858835,29.2148761 23.4442606,29.2148761 C23.4792869,29.2148761 23.5143131,29.2148761 23.5493394,29.2148761 C23.5843658,29.2148761 23.6193921,29.2148761 23.6544183,29.2033058 C23.7127954,29.2033058 23.7711726,29.1917355 23.8295498,29.1917355 C23.8412251,29.1917355 23.8645761,29.1917355 23.8762514,29.1801652 L23.9346286,29.1685951 C23.9696549,29.1685951 24.0046811,29.1570248 24.0397074,29.1570248 C24.1097601,29.1454545 24.1681372,29.1338843 24.2381897,29.1223141 C24.3082424,29.1107438 24.3666194,29.0991735 24.4249966,29.076033 C24.5534264,29.0528926 24.6701806,29.0066116 24.7869349,28.9719009 C25.0204435,28.8909091 25.253952,28.7983471 25.4524343,28.6942149 C25.662592,28.5900826 25.849399,28.4628099 26.0362058,28.3471074 C26.0829075,28.3123967 26.1412846,28.2776859 26.1879863,28.2314049 C26.3747931,28.0809917 26.4098195,27.8033058 26.2580388,27.6181817 C26.1296092,27.4561984 25.8961006,27.4099174 25.7092938,27.5140496 C25.662592,27.53719 25.6158903,27.5603306 25.5691885,27.583471 C25.4057327,27.6644628 25.2422767,27.7338843 25.0671452,27.7917355 C24.8920137,27.8495868 24.7052069,27.8958678 24.5184,27.9305786 C24.4249966,27.9421487 24.3315932,27.953719 24.2265144,27.9652893 C24.1798126,27.9652893 24.1331109,27.9768594 24.0747337,27.9768594 C24.0280321,27.9768594 23.9696549,27.9768594 23.9346286,27.9768594 C23.8879269,27.9768594 23.8412251,27.9768594 23.7945234,27.9768594 C23.7361463,27.9768594 23.6777691,27.9768594 23.6193921,27.9652893 C23.6193921,27.9652893 23.5843658,27.9652893 23.6077166,27.9652893 L23.5843658,27.9652893 L23.5493394,27.9652893 C23.5259886,27.9652893 23.4909623,27.9652893 23.4676115,27.953719 C23.4092343,27.9421487 23.3625326,27.9421487 23.3041555,27.9305786 C22.8721646,27.8727272 22.4401737,27.7454545 22.0315337,27.5603306 C21.6112184,27.3752067 21.2142537,27.1206612 20.8523154,26.7966942 C20.4903771,26.4727272 20.1751406,26.0909091 19.9299566,25.6512397 C19.6847726,25.2115703 19.5096412,24.7256199 19.4279132,24.216529 C19.3928868,23.9619835 19.369536,23.6958678 19.3812115,23.4413223 C19.3812115,23.3719009 19.3928868,23.3024793 19.3928868,23.2330578 C19.3928868,23.2561984 19.3928868,23.2214875 19.3928868,23.2214875 L19.3928868,23.1983471 L19.3928868,23.1404958 C19.3928868,23.1057851 19.4045623,23.0710743 19.4045623,23.0363636 C19.4162378,22.8975206 19.4395885,22.7586777 19.4629395,22.6198346 C19.6614218,21.5090909 20.2218423,20.4214875 21.0858241,19.6 C21.3076572,19.3917355 21.5411657,19.2066116 21.7863497,19.0330578 C22.0315337,18.8595041 22.3000685,18.7090909 22.580279,18.5818181 C22.8604892,18.4545455 23.1406995,18.3504132 23.4442606,18.2694214 C23.7361463,18.1884297 24.0397074,18.1421487 24.3549441,18.107438 C24.5067246,18.0958678 24.6585052,18.0842975 24.8219612,18.0842975 C24.8686629,18.0842975 24.8920137,18.0842975 24.92704,18.0842975 L25.0554697,18.0842975 L25.1371977,18.0842975 C25.172224,18.0842975 25.1371977,18.0842975 25.1488732,18.0842975 L25.1838995,18.0842975 L25.3123292,18.0958678 C25.6509165,18.1190083 25.9778286,18.1652893 26.3047406,18.246281 C26.9585646,18.3851239 27.6007132,18.6280991 28.19616,18.9520661 C29.3870538,19.6115703 30.4028161,20.629752 31.0216137,21.8561984 C31.3368504,22.4694214 31.5586835,23.1289257 31.6637623,23.8115703 C31.6871132,23.9851239 31.710464,24.1586777 31.7221395,24.3322315 L31.7338149,24.4595041 L31.7454903,24.5867768 C31.7454903,24.6330578 31.7454903,24.6793388 31.7454903,24.7140496 C31.7454903,24.7603306 31.7454903,24.8066116 31.7454903,24.8413223 L31.7454903,24.9570248 L31.7454903,25.0842975 C31.7454903,25.1652893 31.7338149,25.3041322 31.7338149,25.3851239 C31.7221395,25.570248 31.6987887,25.7669422 31.6754377,25.9520661 C31.6520869,26.13719 31.6170607,26.3223141 31.5820343,26.507438 C31.547008,26.692562 31.5003063,26.8776859 31.4536047,27.0512397 C31.3602012,27.4099174 31.2434469,27.7685951 31.1033417,28.1272728 C30.8231314,28.8214875 30.4495178,29.492562 30.0058515,30.1057851 C29.1068435,31.3322315 27.8809234,32.3272728 26.4798721,32.9636364 C25.7793463,33.276033 25.0437942,33.507438 24.2848914,33.6231404 C23.9112778,33.692562 23.5259886,33.7272728 23.1406995,33.7388429 L23.0706468,33.7388429 L23.0122698,33.7388429 L22.88384,33.7388429 L22.6970332,33.7388429 L22.6036298,33.7388429 C22.6503315,33.7388429 22.5919543,33.7388429 22.5919543,33.7388429 L22.556928,33.7388429 C22.3467703,33.7388429 22.148288,33.7272728 21.9381303,33.7041322 C21.1208504,33.646281 20.3152458,33.4958678 19.5213166,33.276033 C18.7390629,33.0561983 17.9801599,32.7438016 17.2562834,32.3735538 C15.8202057,31.6099174 14.5242332,30.5685951 13.5201463,29.307438 C13.0181029,28.6826446 12.5744366,28 12.2124983,27.2942149 C11.85056,26.5884297 11.5586743,25.8363636 11.3485166,25.0842975 C11.1383589,24.3206612 11.0099292,23.5454545 10.951552,22.7586777 L10.9398766,22.6082645 L10.9398766,22.5735538 L10.9398766,22.5388429 L10.9398766,22.4694214 L10.9398766,22.3421487 L10.9398766,22.307438 L10.9398766,22.261157 L10.9398766,22.1685951 L10.9398766,21.983471 L10.9398766,21.9487603 C10.9398766,21.9487603 10.9398766,21.9603306 10.9398766,21.9371901 L10.9398766,21.8677685 C10.9398766,21.7752067 10.9398766,21.6710743 10.9398766,21.5785123 C10.951552,21.1966942 10.9865783,20.7917355 11.03328,20.3983471 C11.0799817,20.0049587 11.1500343,19.6 11.2317623,19.2066116 C11.3134903,18.8132232 11.4068937,18.4198346 11.523648,18.0264462 C11.7454812,17.2512397 12.0256914,16.4991735 12.3526034,15.7933884 C13.0181029,14.3818182 13.8820846,13.1206611 14.9211977,12.1140496 C15.1780572,11.8595041 15.446592,11.6280992 15.7268023,11.3966942 C16.0070125,11.1768595 16.2988983,10.968595 16.6024595,10.7719008 C16.8943451,10.5752066 17.2095818,10.4016529 17.5248183,10.2396694 C17.6765989,10.1586777 17.8400549,10.0776859 18.0035109,10.0082645 C18.0852389,9.97355371 18.1669669,9.93884297 18.2486949,9.90413223 C18.3304229,9.86942148 18.4121509,9.83471074 18.4938789,9.8 C18.8207909,9.66115701 19.1593783,9.54545454 19.5096412,9.4413223 C19.5913692,9.41818181 19.6847726,9.39504132 19.7665006,9.36033058 C19.8482286,9.33719007 19.941632,9.31404958 20.02336,9.29090909 C20.1984915,9.2446281 20.3736229,9.1983471 20.5487543,9.16363636 C20.6304823,9.14049587 20.7238858,9.12892561 20.8172891,9.10578512 C20.9106926,9.08264462 20.9924206,9.07107438 21.0858241,9.04793388 C21.1792274,9.03636364 21.2609554,9.01322313 21.3543589,9.00165288 L21.4827886,8.97851239 L21.6228937,8.9553719 C21.7162972,8.94380165 21.7980252,8.93223141 21.8914287,8.92066116 C21.9965075,8.9090909 22.0899109,8.89752065 22.1949897,8.88595041 C22.2767177,8.87438016 22.416823,8.86280991 22.498551,8.85123967 C22.556928,8.83966942 22.6269805,8.83966942 22.6853578,8.82809917 L22.8137875,8.81652893 L22.8721646,8.80495867 L22.9422172,8.80495867 C23.047296,8.79338842 23.1406995,8.79338842 23.2457783,8.78181817 L23.3975588,8.77024793 C23.3975588,8.77024793 23.4559361,8.77024793 23.4092343,8.77024793 L23.4442606,8.77024793 L23.5143131,8.77024793 C23.5960411,8.77024793 23.6894446,8.75867768 23.7711726,8.75867768 C24.1097601,8.74710743 24.4600229,8.74710743 24.7986104,8.75867768 C25.4757852,8.78181817 26.1412846,8.86280991 26.7834331,8.97851239 C28.0794057,9.22148759 29.2936503,9.62644628 30.4028161,10.1702479 C31.5119817,10.7024793 32.4927178,11.3619835 33.3566994,12.0793388 C33.4150766,12.1256198 33.4617783,12.1719008 33.5201554,12.2181818 C33.5668571,12.2644628 33.6252344,12.3107438 33.6719361,12.3570248 C33.7770149,12.4495868 33.8704184,12.5421488 33.9754972,12.6347107 C34.0805761,12.7272727 34.1739794,12.8198347 34.2673829,12.9123967 C34.3607864,13.0049587 34.4541897,13.0975207 34.5475932,13.2016529 C34.9095315,13.5834711 35.248119,13.9652892 35.55168,14.3586777 C36.1588023,15.1338843 36.6491703,15.9206612 37.0344594,16.661157 C37.0578104,16.707438 37.0811612,16.753719 37.1045121,16.8 C37.1278629,16.846281 37.1512137,16.892562 37.1745646,16.9388429 C37.2212664,17.0314049 37.2679681,17.123967 37.3029944,17.216529 C37.3496961,17.3090909 37.3847224,17.3900826 37.4314241,17.4826446 C37.4664504,17.5752067 37.5131521,17.6561984 37.5481784,17.7487603 C37.6882835,18.0958678 37.8283887,18.4314049 37.9334675,18.7438016 C38.1085989,19.2528926 38.2370287,19.7041322 38.3421075,20.0975207 C38.3771338,20.2595041 38.5289143,20.3636364 38.6923703,20.3404958 C38.8675018,20.3289257 38.9959315,20.1900826 38.9959315,20.016529 C39.0076068,19.6 38.9959315,19.1024793 38.9375543,18.5355372 Z" id="Path"></path>
        </g>
    </g>
</svg>